<?xml version="1.0" standalone="no"?>
<!DOCTYPE svg PUBLIC "-//W3C//DTD SVG 20010904//EN"
 "http://www.w3.org/TR/2001/REC-SVG-20010904/DTD/svg10.dtd">
<svg version="1.0" xmlns="http://www.w3.org/2000/svg"
 width="40.000000pt" height="40.000000pt" viewBox="0 0 40.000000 40.000000"
 preserveAspectRatio="xMidYMid meet">

<g transform="translate(0.000000,40.000000) scale(0.100000,-0.100000)"
fill="#000000" stroke="none">
<path d="M139 262 c-3 -20 -2 -29 4 -23 5 5 7 19 5 32 -3 20 -5 19 -9 -9z"/>
<path d="M71 130 c1 -24 3 -28 6 -12 3 13 11 26 19 29 21 8 17 19 -6 19 -16 0
-20 -6 -19 -36z"/>
<path d="M131 144 c0 -20 6 -37 17 -45 15 -12 15 -12 5 1 -6 8 -13 29 -16 45
l-4 30 -2 -31z"/>
<path d="M178 135 c-2 -19 0 -35 4 -35 4 0 8 16 8 35 0 19 -2 35 -4 35 -2 0
-6 -16 -8 -35z"/>
<path d="M210 114 c0 -32 2 -55 5 -52 9 8 11 99 3 104 -4 3 -8 -21 -8 -52z"/>
<path d="M255 156 c12 -8 16 -20 12 -35 -3 -11 -1 -19 4 -15 21 13 1 64 -25
64 -5 0 -2 -6 9 -14z"/>
<path d="M312 158 c-14 -14 -16 -44 -2 -53 6 -3 7 1 4 9 -5 12 1 16 21 16 20
0 26 4 23 17 -4 22 -29 28 -46 11z m38 -8 c0 -5 -9 -10 -21 -10 -11 0 -17 5
-14 10 3 6 13 10 21 10 8 0 14 -4 14 -10z"/>
<path d="M12 135 c0 -16 2 -22 5 -12 2 9 2 23 0 30 -3 6 -5 -1 -5 -18z"/>
</g>
</svg>
